<svg width="24" height="22" viewBox="0 0 24 22" fill="none" xmlns="http://www.w3.org/2000/svg">
<g clip-path="url(#clip0_61_15733)">
<path d="M3.81308 22.0001H19.6337C22.1907 22.0001 23.4468 20.7335 23.4468 18.2002V3.81501C23.4468 1.28176 22.1907 0.0151367 19.6337 0.0151367H3.81308C1.27103 0.0151367 0 1.28176 0 3.81501V18.2002C0 20.7335 1.27103 22.0001 3.81308 22.0001ZM3.60375 19.8136C2.67664 19.8136 2.15327 19.3161 2.15327 18.336V6.99665C2.15327 6.01652 2.67664 5.51893 3.60375 5.51893H19.828C20.7552 5.51893 21.2934 6.01652 21.2934 6.99665V18.336C21.2934 19.3161 20.7552 19.8136 19.828 19.8136H3.60375ZM9.45049 9.78624H10.1383C10.5869 9.78624 10.7365 9.63545 10.7365 9.19817V8.50454C10.7365 8.06726 10.5869 7.91646 10.1383 7.91646H9.45049C9.01683 7.91646 8.86731 8.06726 8.86731 8.50454V9.19817C8.86731 9.63545 9.01683 9.78624 9.45049 9.78624ZM13.3084 9.78624H13.9963C14.4299 9.78624 14.5795 9.63545 14.5795 9.19817V8.50454C14.5795 8.06726 14.4299 7.91646 13.9963 7.91646H13.3084C12.8598 7.91646 12.7103 8.06726 12.7103 8.50454V9.19817C12.7103 9.63545 12.8598 9.78624 13.3084 9.78624ZM17.1515 9.78624H17.8393C18.2729 9.78624 18.4374 9.63545 18.4374 9.19817V8.50454C18.4374 8.06726 18.2729 7.91646 17.8393 7.91646H17.1515C16.7028 7.91646 16.5532 8.06726 16.5532 8.50454V9.19817C16.5532 9.63545 16.7028 9.78624 17.1515 9.78624ZM5.60749 13.6012H6.29534C6.74394 13.6012 6.89346 13.4504 6.89346 13.0131V12.3195C6.89346 11.8822 6.74394 11.7314 6.29534 11.7314H5.60749C5.17385 11.7314 5.00935 11.8822 5.00935 12.3195V13.0131C5.00935 13.4504 5.17385 13.6012 5.60749 13.6012ZM9.45049 13.6012H10.1383C10.5869 13.6012 10.7365 13.4504 10.7365 13.0131V12.3195C10.7365 11.8822 10.5869 11.7314 10.1383 11.7314H9.45049C9.01683 11.7314 8.86731 11.8822 8.86731 12.3195V13.0131C8.86731 13.4504 9.01683 13.6012 9.45049 13.6012ZM13.3084 13.6012H13.9963C14.4299 13.6012 14.5795 13.4504 14.5795 13.0131V12.3195C14.5795 11.8822 14.4299 11.7314 13.9963 11.7314H13.3084C12.8598 11.7314 12.7103 11.8822 12.7103 12.3195V13.0131C12.7103 13.4504 12.8598 13.6012 13.3084 13.6012ZM17.1515 13.6012H17.8393C18.2729 13.6012 18.4374 13.4504 18.4374 13.0131V12.3195C18.4374 11.8822 18.2729 11.7314 17.8393 11.7314H17.1515C16.7028 11.7314 16.5532 11.8822 16.5532 12.3195V13.0131C16.5532 13.4504 16.7028 13.6012 17.1515 13.6012ZM5.60749 17.4162H6.29534C6.74394 17.4162 6.89346 17.2653 6.89346 16.828V16.1344C6.89346 15.6971 6.74394 15.5464 6.29534 15.5464H5.60749C5.17385 15.5464 5.00935 15.6971 5.00935 16.1344V16.828C5.00935 17.2653 5.17385 17.4162 5.60749 17.4162ZM9.45049 17.4162H10.1383C10.5869 17.4162 10.7365 17.2653 10.7365 16.828V16.1344C10.7365 15.6971 10.5869 15.5464 10.1383 15.5464H9.45049C9.01683 15.5464 8.86731 15.6971 8.86731 16.1344V16.828C8.86731 17.2653 9.01683 17.4162 9.45049 17.4162ZM13.3084 17.4162H13.9963C14.4299 17.4162 14.5795 17.2653 14.5795 16.828V16.1344C14.5795 15.6971 14.4299 15.5464 13.9963 15.5464H13.3084C12.8598 15.5464 12.7103 15.6971 12.7103 16.1344V16.828C12.7103 17.2653 12.8598 17.4162 13.3084 17.4162Z" fill="#818181"/>
</g>
<defs>
<clipPath id="clip0_61_15733">
<rect width="24" height="22" fill="white"/>
</clipPath>
</defs>
</svg>
