<svg width="24" height="24" viewBox="0 0 24 24" fill="none" xmlns="http://www.w3.org/2000/svg">
<path d="M9.55373 18.3974C9.86778 18.3974 10.0744 18.2034 10.0661 17.9205L9.80993 9.27212C9.80167 8.98924 9.59506 8.80334 9.29754 8.80334C8.98348 8.80334 8.77687 8.99732 8.78514 9.28021L9.03307 17.9205C9.04133 18.2115 9.24795 18.3974 9.55373 18.3974ZM12 18.3974C12.3141 18.3974 12.5372 18.2034 12.5372 17.9205V9.28021C12.5372 8.99732 12.3141 8.80334 12 8.80334C11.686 8.80334 11.4711 8.99732 11.4711 9.28021V17.9205C11.4711 18.2034 11.686 18.3974 12 18.3974ZM14.4546 18.3974C14.7521 18.3974 14.9587 18.2115 14.967 17.9205L15.2149 9.28021C15.2232 8.99732 15.0166 8.80334 14.7025 8.80334C14.405 8.80334 14.1984 8.98924 14.1901 9.28021L13.9421 17.9205C13.9339 18.2034 14.1405 18.3974 14.4546 18.3974ZM8.37192 6.69377H9.68597V4.96408C9.68597 4.50337 10.0165 4.20431 10.5124 4.20431H13.4711C13.9669 4.20431 14.2976 4.50337 14.2976 4.96408V6.69377H15.6116V4.88325C15.6116 3.71127 14.8347 3 13.562 3H10.4215C9.14877 3 8.37192 3.71127 8.37192 4.88325V6.69377ZM4.61984 7.34038H19.3885C19.7273 7.34038 20 7.05748 20 6.72609C20 6.39471 19.7273 6.1199 19.3885 6.1199H4.61984C4.28926 6.1199 4 6.39471 4 6.72609C4 7.06557 4.28926 7.34038 4.61984 7.34038ZM8.21489 21H15.7934C16.9752 21 17.7686 20.2483 17.8265 19.0926L18.405 7.1868H17.0744L16.5207 18.9551C16.5042 19.4401 16.1488 19.7795 15.6612 19.7795H8.33059C7.85952 19.7795 7.50414 19.432 7.47935 18.9551L6.89257 7.1868H5.59505L6.18182 19.1006C6.23967 20.2564 7.01653 21 8.21489 21Z" fill="#FF3B30"/>
</svg>
