<svg width="28" height="28" viewBox="0 0 28 28" fill="none" xmlns="http://www.w3.org/2000/svg">
<g clip-path="url(#clip0_20_14043)">
<path d="M25.2538 19.4096C25.2538 20.0584 24.8716 20.4958 23.8806 21.0882L15.3022 26.0534C14.7078 26.392 14.2548 26.5471 13.7452 26.5471C13.2356 26.5471 12.7684 26.392 12.1739 26.0534L3.60967 21.0882C2.60463 20.4958 2.23657 20.0584 2.23657 19.4096C2.23657 18.9442 2.4179 18.59 2.87475 18.2153L13.1365 24.1632C13.3205 24.276 13.5611 24.3467 13.7452 24.3467C13.915 24.3467 14.1557 24.276 14.3539 24.1632L24.6063 18.2129C25.0646 18.5886 25.2538 18.9432 25.2538 19.4096Z" fill="#818181"/>
<path d="M25.2538 14.3879C25.2538 15.0509 24.8716 15.4882 23.8806 16.0664L15.3022 21.0458C14.7078 21.3844 14.2548 21.5395 13.7452 21.5395C13.2356 21.5395 12.7684 21.3844 12.1739 21.0458L3.60967 16.0664C2.60463 15.4882 2.23657 15.0509 2.23657 14.3879C2.23657 13.9226 2.4179 13.5684 2.87475 13.1937L13.1365 19.1416C13.3205 19.2544 13.5611 19.3249 13.7452 19.3249C13.915 19.3249 14.1557 19.2544 14.3539 19.1416L24.6063 13.1912C25.0646 13.5669 25.2538 13.9215 25.2538 14.3879Z" fill="#818181"/>
<path d="M3.60967 10.8331L12.1739 15.7984C12.7684 16.1369 13.2356 16.2921 13.7452 16.2921C14.2548 16.2921 14.7078 16.1369 15.3022 15.7984L23.8806 10.8331C24.8716 10.2407 25.2538 9.80342 25.2538 9.14044C25.2538 8.49159 24.8716 8.0402 23.8806 7.46187L15.3022 2.49664C14.7078 2.14399 14.2548 2.00293 13.7452 2.00293C13.2356 2.00293 12.7684 2.14399 12.1739 2.49664L3.60967 7.46187C2.60463 8.0402 2.23657 8.49159 2.23657 9.14044C2.23657 9.80342 2.60463 10.2407 3.60967 10.8331Z" fill="#818181"/>
</g>
<defs>
<clipPath id="clip0_20_14043">
<rect width="28" height="28" fill="white"/>
</clipPath>
</defs>
</svg>
