<svg width="56" height="56" viewBox="0 0 56 56" fill="none" xmlns="http://www.w3.org/2000/svg">
<g filter="url(#filter0_dd_90_20044)">
<rect x="4" width="48" height="48" rx="24" fill="url(#paint0_linear_90_20044)"/>
<path d="M22 24.4453C22 24.8281 22.3203 25.1406 22.6953 25.1406H27.75V30.1953C27.75 30.5703 28.0625 30.8906 28.4453 30.8906C28.8281 30.8906 29.1484 30.5703 29.1484 30.1953V25.1406H34.1953C34.5703 25.1406 34.8906 24.8281 34.8906 24.4453C34.8906 24.0625 34.5703 23.7422 34.1953 23.7422H29.1484V18.6953C29.1484 18.3203 28.8281 18 28.4453 18C28.0625 18 27.75 18.3203 27.75 18.6953V23.7422H22.6953C22.3203 23.7422 22 24.0625 22 24.4453Z" fill="#F2F5F7"/>
</g>
<defs>
<filter id="filter0_dd_90_20044" x="0" y="0" width="56" height="56" filterUnits="userSpaceOnUse" color-interpolation-filters="sRGB">
<feFlood flood-opacity="0" result="BackgroundImageFix"/>
<feColorMatrix in="SourceAlpha" type="matrix" values="0 0 0 0 0 0 0 0 0 0 0 0 0 0 0 0 0 0 127 0" result="hardAlpha"/>
<feOffset dy="4"/>
<feGaussianBlur stdDeviation="2"/>
<feComposite in2="hardAlpha" operator="out"/>
<feColorMatrix type="matrix" values="0 0 0 0 0.176471 0 0 0 0 0.360784 0 0 0 0 0.968627 0 0 0 0.25 0"/>
<feBlend mode="normal" in2="BackgroundImageFix" result="effect1_dropShadow_90_20044"/>
<feColorMatrix in="SourceAlpha" type="matrix" values="0 0 0 0 0 0 0 0 0 0 0 0 0 0 0 0 0 0 127 0" result="hardAlpha"/>
<feOffset dy="1"/>
<feGaussianBlur stdDeviation="0.5"/>
<feComposite in2="hardAlpha" operator="out"/>
<feColorMatrix type="matrix" values="0 0 0 0 0.0130457 0 0 0 0 0.0962244 0 0 0 0 0.134733 0 0 0 0.15 0"/>
<feBlend mode="normal" in2="effect1_dropShadow_90_20044" result="effect2_dropShadow_90_20044"/>
<feBlend mode="normal" in="SourceGraphic" in2="effect2_dropShadow_90_20044" result="shape"/>
</filter>
<linearGradient id="paint0_linear_90_20044" x1="10.0606" y1="64" x2="121.171" y2="44.6517" gradientUnits="userSpaceOnUse">
<stop stop-color="#2253F6"/>
<stop offset="1" stop-color="#9DB4FF"/>
</linearGradient>
</defs>
</svg>
