<svg width="26" height="25" viewBox="0 0 26 25" fill="none" xmlns="http://www.w3.org/2000/svg">
<path d="M11.9219 24.9844H14.0664C14.7578 24.9844 15.2852 24.5742 15.4258 23.8945L16.0234 21.3984C16.4219 21.2578 16.8086 21.1055 17.1602 20.9414L19.3398 22.2773C19.9141 22.6406 20.582 22.582 21.0625 22.1016L22.5625 20.6016C23.043 20.1211 23.1133 19.418 22.7266 18.8438L21.4023 16.6875C21.5664 16.3242 21.7305 15.9492 21.8477 15.5859L24.3555 14.9883C25.0352 14.8359 25.4453 14.3203 25.4453 13.6289V11.5195C25.4453 10.8281 25.0352 10.3125 24.3555 10.1602L21.8711 9.5625C21.7305 9.14062 21.5664 8.76562 21.4258 8.44922L22.75 6.24609C23.125 5.66016 23.0781 5.00391 22.5859 4.51172L21.0625 3.01172C20.5703 2.56641 19.9609 2.48438 19.375 2.8125L17.1602 4.17188C16.8203 4.00781 16.4453 3.85547 16.0234 3.71484L15.4258 1.18359C15.2852 0.503906 14.7578 0.09375 14.0664 0.09375H11.9219C11.2188 0.09375 10.7031 0.503906 10.5508 1.19531L9.96484 3.69141C9.55469 3.83203 9.15625 3.98438 8.80469 4.16016L6.60156 2.8125C6.01562 2.48438 5.40625 2.55469 4.91406 3.01172L3.39062 4.51172C2.89844 5.00391 2.85156 5.66016 3.22656 6.24609L4.55078 8.44922C4.41016 8.76562 4.24609 9.14062 4.11719 9.5625L1.63281 10.1602C0.953125 10.3125 0.542969 10.8281 0.542969 11.5195V13.6289C0.542969 14.3203 0.953125 14.8359 1.63281 14.9883L4.14062 15.5859C4.25781 15.9492 4.41016 16.3242 4.57422 16.6875L3.25 18.8438C2.86328 19.418 2.93359 20.1211 3.41406 20.6016L4.91406 22.1016C5.39453 22.582 6.07422 22.6406 6.64844 22.2773L8.81641 20.9414C9.16797 21.1055 9.55469 21.2578 9.96484 21.3984L10.5508 23.8945C10.7031 24.5742 11.2188 24.9844 11.9219 24.9844ZM13 16.6406C10.7383 16.6406 8.88672 14.7891 8.88672 12.5273C8.88672 10.2891 10.7383 8.4375 13 8.4375C15.25 8.4375 17.0898 10.2891 17.0898 12.5273C17.0898 14.7891 15.25 16.6406 13 16.6406Z" fill="#818181"/>
</svg>
