<svg width="18" height="20" viewBox="0 0 18 20" fill="none" xmlns="http://www.w3.org/2000/svg">
<path d="M6.71244 6.6957C6.98652 6.13853 7.46123 5.72132 8.04905 5.52117C8.63734 5.32102 9.2675 5.36177 9.82483 5.6357C10.5049 5.97019 10.9704 6.60718 11.0914 7.3426H12.933L13.8742 5.43002C13.8745 5.42933 13.8751 5.42883 13.8754 5.42814L15.007 3.12771L8.6484 0L5.84111 5.70716C5.83985 5.70991 5.83955 5.71291 5.83821 5.71563L5.03745 7.3426H6.50839C6.54489 7.11816 6.61145 6.90112 6.71244 6.6957ZM9.49419 3.10433C9.84141 2.4042 10.6915 2.11574 11.3872 2.46075C12.0873 2.80798 12.3761 3.65708 12.0308 4.35375C11.8633 4.69165 11.5745 4.94504 11.2177 5.06715C11.0678 5.11849 10.9133 5.14393 10.7596 5.14393C10.5461 5.14393 10.3341 5.0948 10.1376 4.99733C9.43748 4.65026 9.14886 3.80115 9.49419 3.10433Z" fill="#F2F5F7"/>
<path d="M8.25775 6.13367C7.83343 6.27821 7.49094 6.57915 7.29316 6.98135C7.23613 7.09715 7.19332 7.21784 7.16489 7.34264H10.4326C10.3204 6.85671 9.99703 6.44156 9.53923 6.21645C9.13734 6.01882 8.68254 5.98896 8.25775 6.13367Z" fill="#F2F5F7"/>
<path d="M13.6549 7.34261H16.5166C16.9159 7.34261 17.2409 7.01876 17.2409 6.62067C17.2409 6.42731 17.1655 6.24533 17.0287 6.10852C16.8919 5.97172 16.7101 5.89636 16.5166 5.89636H14.3663L13.6549 7.34261Z" fill="#F2F5F7"/>
<path d="M10.425 4.41752C10.6073 4.50772 10.8141 4.52115 11.0084 4.4548C11.2027 4.38829 11.3599 4.25038 11.451 4.0665C11.6379 3.68942 11.4804 3.22908 11.0998 3.04046C10.9921 2.98707 10.8777 2.96179 10.7646 2.96179C10.482 2.96179 10.2087 3.11977 10.0739 3.39164C9.88707 3.76872 10.0446 4.2289 10.425 4.41752Z" fill="#F2F5F7"/>
<path d="M4.02186 13.6468C4.02186 13.3489 3.77937 13.1066 3.48143 13.1066C3.18349 13.1066 2.94116 13.3489 2.94116 13.6468C2.94116 13.9448 3.18349 14.1871 3.48143 14.1871C3.77937 14.1871 4.02186 13.9448 4.02186 13.6468Z" fill="#F2F5F7"/>
<path d="M1.27812 7.44057C1.33953 7.41632 1.40292 7.39679 1.46826 7.38153C1.48988 7.37649 1.51123 7.37152 1.5332 7.36751C1.61353 7.35282 1.69536 7.34261 1.77988 7.34261H4.31547L5.02684 5.89636H1.77988C1.38052 5.89636 1.05557 6.22131 1.05557 6.62067V7.54955C1.11298 7.51375 1.17368 7.48305 1.23633 7.45591C1.24994 7.45003 1.26429 7.44602 1.27812 7.44057Z" fill="#F2F5F7"/>
<path d="M17.0183 7.8917C16.9569 7.91595 16.8935 7.93548 16.8282 7.95074C16.8066 7.95577 16.7852 7.96075 16.7633 7.96476C16.6829 7.97945 16.6011 7.98966 16.5166 7.98966H13.1352H13.1344H10.7986H6.79964H4.51756H4.51693H1.77988C1.38052 7.98966 1.05557 8.31366 1.05557 8.71176V11.1984H3.35803C4.43654 11.1984 5.37004 11.859 5.72842 12.7917C5.81126 13.0069 5.86347 13.2366 5.87976 13.4761C5.92794 14.1819 5.66824 14.8738 5.16762 15.3744C5.07838 15.4644 4.98178 15.544 4.88169 15.6179C4.46707 15.9249 3.9673 16.0935 3.43923 16.0935H1.05557V18.578C1.05557 18.9773 1.38052 19.3021 1.77988 19.3021H16.5166C16.9159 19.3021 17.2409 18.9773 17.2409 18.578V7.78271C17.1835 7.81852 17.1228 7.8492 17.0601 7.87633C17.0465 7.88222 17.0322 7.88623 17.0183 7.8917Z" fill="#F2F5F7"/>
<path d="M4.46427 15.1205C4.55017 15.0599 4.63308 14.9941 4.70855 14.9178C4.75533 14.871 4.79913 14.8223 4.83997 14.772C5.08119 14.4721 5.21985 14.1036 5.23644 13.7203C5.23909 13.6538 5.23842 13.5866 5.23382 13.5189C5.22497 13.3889 5.19855 13.2642 5.16212 13.1434C4.93501 12.3928 4.20867 11.8463 3.35757 11.8463H0.251652C0.112951 11.8463 0 11.9591 0 12.0978V15.1941C0 15.3328 0.112951 15.4456 0.251652 15.4456H3.43892C3.81251 15.4456 4.16607 15.33 4.46427 15.1205ZM2.29409 13.6469C2.29409 12.9923 2.82678 12.4596 3.48142 12.4596C4.13622 12.4596 4.6689 12.9923 4.6689 13.6469C4.6689 14.3015 4.13622 14.8342 3.48142 14.8342C2.82678 14.8342 2.29409 14.3015 2.29409 13.6469Z" fill="#F2F5F7"/>
</svg>
